<mxfile host="app.diagrams.net" modified="2024-07-05T10:03:54.310Z" agent="Mozilla/5.0 (Windows NT 10.0; Win64; x64) AppleWebKit/537.36 (KHTML, like Gecko) Chrome/127.0.0.0 Safari/537.36 Edg/127.0.0.0" etag="yxnrkZK6xSdsGUojp1dG" version="24.6.4" type="github">
  <diagram name="第 1 页" id="JpJuvLmKtG-MRXJeiW7m">
    <mxGraphModel dx="71" dy="1515" grid="1" gridSize="10" guides="1" tooltips="1" connect="1" arrows="1" fold="1" page="1" pageScale="1" pageWidth="1169" pageHeight="827" math="0" shadow="0">
      <root>
        <mxCell id="0" />
        <mxCell id="1" parent="0" />
        <mxCell id="x4KqAzlnpJHavPA9GCZs-4" style="edgeStyle=orthogonalEdgeStyle;rounded=0;orthogonalLoop=1;jettySize=auto;html=1;entryX=0;entryY=0.5;entryDx=0;entryDy=0;" edge="1" parent="1" source="x4KqAzlnpJHavPA9GCZs-2" target="x4KqAzlnpJHavPA9GCZs-3">
          <mxGeometry relative="1" as="geometry" />
        </mxCell>
        <mxCell id="x4KqAzlnpJHavPA9GCZs-2" value="多嵌入特征优化&lt;div&gt;指导向量&lt;/div&gt;" style="rounded=0;whiteSpace=wrap;html=1;" vertex="1" parent="1">
          <mxGeometry x="1270" y="200" width="100" height="40" as="geometry" />
        </mxCell>
        <mxCell id="x4KqAzlnpJHavPA9GCZs-3" value="多嵌入特征优化模型" style="rounded=0;whiteSpace=wrap;html=1;" vertex="1" parent="1">
          <mxGeometry x="1410" y="190" width="120" height="60" as="geometry" />
        </mxCell>
        <mxCell id="x4KqAzlnpJHavPA9GCZs-49" value="&lt;font style=&quot;font-size: 18px;&quot;&gt;多嵌入特征语义信息&lt;/font&gt;" style="text;html=1;align=center;verticalAlign=middle;resizable=0;points=[];autosize=1;strokeColor=none;fillColor=none;" vertex="1" parent="1">
          <mxGeometry x="1620" y="-20" width="190" height="40" as="geometry" />
        </mxCell>
        <mxCell id="x4KqAzlnpJHavPA9GCZs-50" value="················" style="rounded=1;whiteSpace=wrap;html=1;" vertex="1" parent="1">
          <mxGeometry x="1630" y="40" width="170" height="350" as="geometry" />
        </mxCell>
        <mxCell id="x4KqAzlnpJHavPA9GCZs-51" value="多嵌入特征语义信息表征块" style="rounded=0;whiteSpace=wrap;html=1;" vertex="1" parent="1">
          <mxGeometry x="1655" y="60" width="120" height="60" as="geometry" />
        </mxCell>
        <mxCell id="x4KqAzlnpJHavPA9GCZs-52" value="多嵌入特征语义信息表征块" style="rounded=0;whiteSpace=wrap;html=1;" vertex="1" parent="1">
          <mxGeometry x="1655" y="120" width="120" height="60" as="geometry" />
        </mxCell>
        <mxCell id="x4KqAzlnpJHavPA9GCZs-53" value="多嵌入特征语义信息表征块" style="rounded=0;whiteSpace=wrap;html=1;" vertex="1" parent="1">
          <mxGeometry x="1655" y="310" width="120" height="60" as="geometry" />
        </mxCell>
        <mxCell id="x4KqAzlnpJHavPA9GCZs-54" value="多嵌入特征语义信息表征块" style="rounded=0;whiteSpace=wrap;html=1;" vertex="1" parent="1">
          <mxGeometry x="1655" y="250" width="120" height="60" as="geometry" />
        </mxCell>
        <mxCell id="x4KqAzlnpJHavPA9GCZs-56" value="" style="endArrow=classic;html=1;rounded=0;exitX=1;exitY=0.5;exitDx=0;exitDy=0;entryX=0;entryY=0.5;entryDx=0;entryDy=0;" edge="1" parent="1" source="x4KqAzlnpJHavPA9GCZs-3" target="x4KqAzlnpJHavPA9GCZs-51">
          <mxGeometry width="50" height="50" relative="1" as="geometry">
            <mxPoint x="1600" y="140" as="sourcePoint" />
            <mxPoint x="1650" y="90" as="targetPoint" />
          </mxGeometry>
        </mxCell>
        <mxCell id="x4KqAzlnpJHavPA9GCZs-57" value="" style="endArrow=classic;html=1;rounded=0;exitX=1;exitY=0.5;exitDx=0;exitDy=0;entryX=0;entryY=0.5;entryDx=0;entryDy=0;" edge="1" parent="1" source="x4KqAzlnpJHavPA9GCZs-3" target="x4KqAzlnpJHavPA9GCZs-52">
          <mxGeometry width="50" height="50" relative="1" as="geometry">
            <mxPoint x="1600" y="200" as="sourcePoint" />
            <mxPoint x="1650" y="150" as="targetPoint" />
          </mxGeometry>
        </mxCell>
        <mxCell id="x4KqAzlnpJHavPA9GCZs-58" value="" style="endArrow=classic;html=1;rounded=0;entryX=0.118;entryY=0.514;entryDx=0;entryDy=0;entryPerimeter=0;" edge="1" parent="1" target="x4KqAzlnpJHavPA9GCZs-50">
          <mxGeometry width="50" height="50" relative="1" as="geometry">
            <mxPoint x="1530" y="220" as="sourcePoint" />
            <mxPoint x="1610" y="220" as="targetPoint" />
          </mxGeometry>
        </mxCell>
        <mxCell id="x4KqAzlnpJHavPA9GCZs-60" value="" style="endArrow=classic;html=1;rounded=0;exitX=1;exitY=0.5;exitDx=0;exitDy=0;entryX=0;entryY=0.5;entryDx=0;entryDy=0;" edge="1" parent="1" source="x4KqAzlnpJHavPA9GCZs-3" target="x4KqAzlnpJHavPA9GCZs-54">
          <mxGeometry width="50" height="50" relative="1" as="geometry">
            <mxPoint x="1540" y="230" as="sourcePoint" />
            <mxPoint x="1620" y="280" as="targetPoint" />
          </mxGeometry>
        </mxCell>
        <mxCell id="x4KqAzlnpJHavPA9GCZs-61" value="" style="endArrow=classic;html=1;rounded=0;exitX=1;exitY=0.5;exitDx=0;exitDy=0;entryX=0;entryY=0.5;entryDx=0;entryDy=0;" edge="1" parent="1" source="x4KqAzlnpJHavPA9GCZs-3" target="x4KqAzlnpJHavPA9GCZs-53">
          <mxGeometry width="50" height="50" relative="1" as="geometry">
            <mxPoint x="1540" y="230" as="sourcePoint" />
            <mxPoint x="1620" y="340" as="targetPoint" />
          </mxGeometry>
        </mxCell>
      </root>
    </mxGraphModel>
  </diagram>
</mxfile>
